<svg width="53" height="56" viewBox="0 0 53 56" fill="none" xmlns="http://www.w3.org/2000/svg">
<g clip-path="url(#clip0_126_274)">
<path d="M50.4136 40.1274C50.5156 40.2979 50.6754 40.5537 50.8246 40.814C52.1612 43.1385 51.9313 45.3078 49.8991 47.0402C48.8137 47.9657 48.3859 48.978 48.2444 50.3389C47.9323 53.3394 46.7008 54.612 43.7323 55.1007C42.4368 55.3138 41.1124 55.3762 39.7987 55.4554C33.3244 55.842 26.8699 55.5969 20.4321 54.8312C18.0406 54.5466 15.64 54.3395 13.2469 54.0655C12.2133 53.9468 11.8175 53.519 11.784 52.4778C11.7323 50.9052 11.7231 49.3312 11.7216 47.7587C11.7155 41.5919 11.7186 35.4266 11.717 29.2598C11.717 27.9567 11.8647 27.7467 13.0947 27.3676C14.4678 26.9444 15.1407 25.8438 15.6796 24.6458C16.9004 21.9239 18.5963 19.5233 20.732 17.4697C22.3548 15.9093 24.0856 14.448 25.8728 13.0779C27.9279 11.5008 29.6283 9.72276 30.0895 7.07551C30.2859 5.9551 30.3544 4.81034 30.4412 3.67319C30.6223 1.27406 31.7412 0.138436 34.1434 0.0059972C35.3353 -0.0594612 36.2807 0.43376 36.8652 1.48109C38.555 4.50436 38.9462 7.67224 37.6462 10.9208C36.678 13.3428 35.5485 15.7008 34.5072 18.0954C34.2865 18.6038 34.0749 19.132 33.9699 19.6724C33.7902 20.6041 34.1647 21.1262 35.0963 21.3119C35.5393 21.4002 36.0021 21.4337 36.4557 21.4261C38.7392 21.3926 41.0211 21.3196 43.303 21.2982C45.3155 21.28 47.3066 21.4824 49.2232 22.1462C52.0379 23.1219 53.4019 25.9854 52.388 28.8184C52.1323 29.5323 51.8156 30.2295 51.4762 30.9085C51.2265 31.4093 51.225 31.8142 51.5432 32.3074C51.9679 32.9635 52.3195 33.6745 52.6377 34.3915C53.3029 35.8955 53.038 37.2579 51.9207 38.4621C51.4381 38.9812 50.9692 39.514 50.4121 40.129L50.4136 40.1274Z" fill="#303030"/>
<path d="M1.0372e-05 40.8796C1.0372e-05 36.9217 -0.00151192 32.9637 1.0372e-05 29.0073C1.0372e-05 27.8001 0.389716 27.4043 1.58776 27.4013C3.9473 27.3952 6.30533 27.3952 8.66488 27.4013C9.83856 27.4043 10.2298 27.794 10.2313 28.9479C10.2344 36.9141 10.2328 44.8802 10.2313 52.8464C10.2313 54.0185 9.85835 54.3991 8.68467 54.4037C6.30076 54.4143 3.91686 54.4143 1.53143 54.4082C0.382105 54.4052 0.00153266 54.0079 1.0372e-05 52.8281C-0.00303421 48.8458 1.0372e-05 44.8619 1.0372e-05 40.8796Z" fill="#303030"/>
</g>
<defs>
<clipPath id="clip0_126_274">
<rect width="53" height="55.6351" fill="white"/>
</clipPath>
</defs>
</svg>
