<svg width="16" height="14" viewBox="0 0 16 14" fill="none" xmlns="http://www.w3.org/2000/svg">
<g clip-path="url(#clip0_126_328)">
<path d="M16 0.0110297C15.8484 0.0875885 15.6957 0.161827 15.5457 0.241093C14.533 0.777777 13.5919 1.42273 12.6975 2.13689C10.7202 3.71562 9.03973 5.57043 7.59285 7.64138C6.37525 9.38367 5.35911 11.2377 4.50807 13.1842C4.49261 13.2193 4.47637 13.2541 4.4551 13.3005C2.96762 11.4805 1.48632 9.66826 0 7.84979C0.716095 7.01886 1.42871 6.19218 2.14828 5.35738C2.86902 6.37546 3.5855 7.38812 4.30546 8.40504C4.31977 8.39189 4.33059 8.38416 4.33871 8.37449C5.17081 7.34752 6.08178 6.39479 7.0434 5.48885C8.10595 4.48778 9.22997 3.56212 10.4317 2.73196C11.7235 1.83955 13.0815 1.06623 14.5477 0.495902C15.0082 0.316878 15.4826 0.17304 15.9505 0.0133497C15.9656 0.00832311 15.9811 0.00484316 15.9965 0.000976562C15.9977 0.0044565 15.9992 0.00793645 16.0004 0.0114164L16 0.0110297Z" fill="#303030"/>
</g>
<defs>
<clipPath id="clip0_126_328">
<rect width="16" height="13.3" fill="white"/>
</clipPath>
</defs>
</svg>
