<svg width="26" height="26" viewBox="0 0 26 26" fill="none" xmlns="http://www.w3.org/2000/svg">
<path d="M11.9167 20.5834H14.0834V16.0604L15.8167 17.7938L17.3334 16.25L13 11.9167L8.66671 16.25L10.2105 17.7667L11.9167 16.0604V20.5834ZM6.50004 23.8334C5.90421 23.8334 5.39432 23.6214 4.97037 23.1974C4.54643 22.7735 4.3341 22.2632 4.33337 21.6667V4.33335C4.33337 3.73752 4.54571 3.22763 4.97037 2.80369C5.39504 2.37974 5.90493 2.16741 6.50004 2.16669H15.1667L21.6667 8.66669V21.6667C21.6667 22.2625 21.4547 22.7728 21.0308 23.1974C20.6068 23.6221 20.0966 23.8341 19.5 23.8334H6.50004ZM14.0834 9.75002H19.5L14.0834 4.33335V9.75002Z" fill="white"/>
</svg>
