<svg width="69" height="51" viewBox="0 0 69 51" fill="none" xmlns="http://www.w3.org/2000/svg">
<g clip-path="url(#clip0_126_246)">
<path d="M34.2661 51C34.0459 50.8348 33.8532 50.6972 33.6881 50.5321C29.6697 46.8715 24.8807 44.9174 19.5963 43.9541C15.1927 43.1284 10.7339 42.9633 6.27523 42.9908C4.21101 42.9908 2.11927 42.9908 0 42.9908V39.8807C0.165138 39.8807 0.330275 39.7981 0.495413 39.8256C5.58716 39.9633 10.7064 39.9357 15.7706 40.321C22.2661 40.7889 28.4037 42.5779 33.8257 46.4311C33.9908 46.5688 34.4312 46.5688 34.5963 46.4311C39.5229 43.0183 45.1101 41.2844 50.9725 40.4036C56.5872 39.5504 62.2018 39.6055 67.844 39.9357C68.3394 39.9633 68.5872 40.1284 68.5872 40.6513C68.5872 41.2018 68.5596 41.7798 68.5872 42.3302C68.5872 42.9357 68.3395 43.0733 67.7615 43.0733C63.6881 43.0733 59.6147 43.0458 55.5413 43.1834C52.0459 43.321 48.633 43.9266 45.2477 44.8348C41.5321 45.8532 38.2018 47.6146 35.2844 50.1192C34.9817 50.3944 34.6514 50.6422 34.2936 50.9724L34.2661 51Z" fill="#303030"/>
<path d="M34.2661 39.468C32.5046 37.7065 30.5229 36.3854 28.4312 35.257C28.2936 35.1744 28.156 34.9542 28.156 34.7891C28.156 33.0001 28.0734 31.1836 28.2936 29.4221C28.6514 26.6148 30.9083 24.6331 33.6881 24.3579C36.3303 24.1102 39.0275 25.734 39.8532 28.2111C40.156 29.0918 40.211 30.0551 40.2661 30.9909C40.3211 32.2295 40.2661 33.4405 40.2661 34.679C40.2661 34.9267 40.156 35.2845 39.9633 35.3671C37.8991 36.4405 36 37.734 34.2661 39.4405V39.468Z" fill="#303030"/>
<path d="M32.8624 40.7064C29.1743 38.6146 25.2936 36.9908 21.1376 36.2201C17.0367 35.4495 12.9083 34.9541 8.64221 34.3486V29.5596C9.1101 29.6697 9.4679 29.7247 9.8257 29.8348C15.9358 31.7889 21.9083 34.0733 27.6606 36.9357C29.5872 37.899 31.3762 39.11 32.8349 40.7614L32.8624 40.7064Z" fill="#303030"/>
<path d="M35.8073 40.6789C36.8532 39.2477 38.2844 38.2844 39.7982 37.4862C45.2752 34.6513 51 32.422 56.7798 30.3578C57.7706 30 58.7339 29.6697 59.9174 29.2568C59.9174 30.11 59.9174 30.8256 59.9174 31.5412C59.9174 32.2568 59.8899 32.9724 59.9174 33.688C59.9174 34.3761 59.6697 34.6238 58.9266 34.6789C56.6147 34.8165 54.2752 34.9541 51.9633 35.2844C46.3761 36.0825 41.1193 37.844 36.1376 40.5137C36.0275 40.5688 35.9174 40.6238 35.8073 40.6789Z" fill="#303030"/>
<path d="M53.0367 29.7522C49.1835 31.3485 45.3853 32.9449 41.5596 34.5412C40.6789 29.3118 43.4037 26.2017 47.2569 25.9265C49.6514 25.7614 52.1285 27.3577 53.0367 29.7522Z" fill="#303030"/>
<path d="M27.0826 34.5689C24.633 33.5505 22.4037 32.6423 20.1468 31.7065C18.8807 31.1836 17.6422 30.6882 16.3762 30.1652C15.4954 29.7799 15.4404 29.5322 15.9083 28.7065C17.0918 26.6973 19.6514 25.5138 21.9633 25.9542C24.3853 26.3946 26.3945 28.4038 26.7798 30.8533C26.9725 32.0368 26.945 33.2478 27.0275 34.5964L27.0826 34.5689Z" fill="#303030"/>
<path d="M64.789 30.4404C64.789 30.4404 64.8716 30.578 64.8716 30.6331C64.8716 33.1102 64.8716 35.6147 64.8716 38.0918C64.8716 38.7248 64.5138 38.6698 64.0459 38.6423C57.3027 38.1193 50.6147 38.5872 44.1193 40.5964C41.6697 41.3395 39.3578 42.4404 36.9908 43.4037C36.7706 43.4863 36.5505 43.5964 36.3027 43.7065C36.2752 43.6514 36.2202 43.5964 36.1927 43.5138C37.1009 42.8808 37.9541 42.1927 38.8899 41.6147C42.6605 39.3579 46.789 38.1468 51.0826 37.3487C54.7156 36.6606 58.3486 36.5505 62.0367 36.7157C62.7248 36.7432 63.0275 36.578 62.9725 35.8624C62.9174 34.8441 62.8899 33.8257 62.945 32.7799C62.945 32.4496 63.1101 32.0643 63.3303 31.8166C63.7431 31.3212 64.2661 30.9083 64.7339 30.4404H64.789Z" fill="#303030"/>
<path d="M5.50459 36.7156C15.1101 36.6605 24.3853 37.5413 32.2569 43.7064C23.3119 38.8624 13.6239 38.1743 3.63303 38.6697V30.4128C4.59633 30.8807 5.50459 32.2294 5.50459 33.2752C5.50459 34.4037 5.50459 35.5321 5.50459 36.7431V36.7156Z" fill="#303030"/>
<path d="M38.2569 19.4587C38.2569 21.688 36.4954 23.477 34.2661 23.477C32.0918 23.477 30.3028 21.688 30.3028 19.5137C30.3028 17.3394 32.1193 15.4954 34.3211 15.4954C36.4954 15.4954 38.2844 17.2844 38.2844 19.4587H38.2569Z" fill="#303030"/>
<path d="M47.5872 24.9082C45.3853 24.9082 43.6514 23.2018 43.6514 21.0275C43.6514 18.8532 45.3853 17.0642 47.5046 17.0642C49.7064 17.0642 51.4954 18.7982 51.4954 21C51.4954 23.1743 49.7615 24.9082 47.5872 24.9082Z" fill="#303030"/>
<path d="M24.7431 21.0001C24.7431 23.1744 23.0092 24.9083 20.8624 24.9083C18.6881 24.9083 16.9541 23.1744 16.9266 21.0276C16.9266 18.8808 18.633 17.0918 20.8073 17.0918C23.0092 17.0918 24.7431 18.7982 24.7706 21.0001H24.7431Z" fill="#303030"/>
<path d="M23.4771 12.3028C23.4771 13.2661 22.5688 13.9817 21.8807 13.679C20.367 12.9909 18.9083 12.2203 17.4771 11.3946C16.9541 11.0918 16.7064 10.4863 17.0642 9.8533C17.3945 9.27532 18.0275 9.02762 18.7156 9.35789C20.0367 9.9634 21.3303 10.6239 22.5963 11.3395C23.0092 11.5872 23.2844 12.0827 23.4771 12.3028Z" fill="#303030"/>
<path d="M46.1285 13.9817C45.7982 13.6515 45.3853 13.3487 45.1651 12.9359C44.8899 12.4404 45.0826 11.8625 45.578 11.5872C47.0367 10.7891 48.5229 10.046 50.0367 9.35788C50.5596 9.11017 51.1376 9.30283 51.3303 9.85329C51.4679 10.2661 51.4679 11.0918 51.2477 11.2294C49.7064 12.1652 48.0826 12.9909 46.4862 13.8166C46.4587 13.8166 46.3762 13.8166 46.3211 13.8166C46.2661 13.8716 46.211 13.9267 46.156 13.9817H46.1285Z" fill="#303030"/>
<path d="M44.6972 3.5229C44.6972 3.5229 44.6972 3.57795 44.6972 3.60547C44.0917 5.44951 43.0734 7.07336 41.7248 8.47703C41.5321 8.66969 40.844 8.58712 40.5413 8.39446C40.266 8.22932 40.1284 7.76143 40.0183 7.37611C39.9633 7.18345 40.0734 6.90822 40.1835 6.71556C40.9541 5.42198 41.7523 4.12841 42.5504 2.86235C42.8807 2.33942 43.4587 2.2018 43.9541 2.47703C44.3119 2.66969 44.5321 3.08254 44.8349 3.41281C44.7798 3.46786 44.7523 3.49538 44.6972 3.55042V3.5229Z" fill="#303030"/>
<path d="M23.6697 3.30275C23.9174 3.08257 24.1652 2.61468 24.5229 2.50459C24.8807 2.3945 25.5688 2.50459 25.7615 2.7523C26.6973 4.15596 27.5505 5.61468 28.3486 7.10092C28.6239 7.62385 28.3486 8.14679 27.8257 8.47707C27.3028 8.80734 26.6697 8.77982 26.367 8.31193C25.4312 6.85321 24.633 5.31193 23.7798 3.79817C23.7248 3.7156 23.7248 3.60551 23.6697 3.30275Z" fill="#303030"/>
<path d="M33.0275 3.41278C33.0275 2.66966 33 1.92654 33.0275 1.18342C33.0826 0.440302 33.5505 -6.49579e-05 34.1835 -0.0275879C34.8716 -0.0275879 35.422 0.385256 35.4495 1.12838C35.5046 2.55957 35.5321 3.99076 35.4495 5.42195C35.4495 6.1926 34.8991 6.63296 34.211 6.60544C33.5229 6.60544 33.0275 6.0825 33 5.31186C33 4.67883 33 4.04581 33 3.38526L33.0275 3.41278Z" fill="#303030"/>
</g>
<defs>
<clipPath id="clip0_126_246">
<rect width="68.5596" height="51" fill="white"/>
</clipPath>
</defs>
</svg>
