<svg width="62" height="62" viewBox="0 0 62 62" fill="none" xmlns="http://www.w3.org/2000/svg">
<g clip-path="url(#clip0_126_264)">
<path d="M22.5904 48.2625C22.5826 49.2159 23.0046 49.9401 23.6637 50.5523C24.6119 51.4327 25.7893 51.9277 26.9147 52.5164C27.3549 52.7457 27.7978 52.9723 28.2172 53.238C29.267 53.9049 29.465 55.3454 28.5975 56.2389C27.1518 57.7264 25.6904 59.1982 24.1951 60.6388C22.9447 61.8423 21.0092 61.7667 19.7354 60.5007C17.2476 58.0286 14.7755 55.5434 12.2955 53.0635C8.61728 49.3852 4.94164 45.707 1.2608 42.034C0.0416665 40.8174 -0.317822 39.4707 0.29956 38.1604C0.471489 37.7983 0.716358 37.4518 0.997696 37.1652C2.35489 35.7768 3.73554 34.4066 5.11357 33.0363C6.19464 31.9605 7.61175 32.1376 8.37502 33.4688C8.89862 34.3805 9.32844 35.3418 9.85986 36.2509C10.2115 36.8526 10.6075 37.444 11.079 37.952C11.9855 38.9314 13.1317 39.1685 14.3639 38.6787C15.9347 38.0561 17.0522 36.9334 17.6462 35.347C18.0838 34.1773 17.8988 33.0572 16.9532 32.2158C16.2864 31.6218 15.5075 31.1399 14.7364 30.6736C13.9627 30.2047 13.1239 29.8478 12.345 29.392C11.1337 28.6808 10.9435 27.2298 11.9256 26.2321C13.2672 24.8671 14.6166 23.5099 15.9842 22.171C17.2424 20.9388 19.1779 20.9622 20.4413 22.2152C22.4211 24.1794 24.3879 26.1592 26.3624 28.1312C27.308 29.0768 28.3292 28.9648 28.9752 27.8003C29.3504 27.1256 29.6421 26.4067 29.9547 25.6981C30.3246 24.8593 30.7935 24.0934 31.5099 23.5021C32.393 22.7727 33.4115 22.5044 34.5056 22.8222C36.6782 23.4578 38.1031 24.8984 38.697 27.0787C39.0201 28.264 38.6397 29.3294 37.7931 30.2177C37.1966 30.8456 36.462 31.2519 35.6779 31.5932C34.9954 31.8902 34.305 32.1767 33.6564 32.5388C32.5858 33.1353 32.4581 34.2216 33.3178 35.0865C35.2663 37.0428 37.2226 38.9913 39.1738 40.9451C40.5987 42.3726 40.5935 44.2508 39.1633 45.6809C37.8817 46.9626 36.6 48.2416 35.3184 49.5233C34.2608 50.5783 32.8202 50.409 32.0804 49.1143C31.6089 48.2911 31.2233 47.4185 30.7388 46.6031C30.3246 45.905 29.8896 45.199 29.3504 44.5973C28.4855 43.6308 27.3549 43.3859 26.1488 43.8522C24.4191 44.5243 23.2365 45.7513 22.6868 47.5487C22.6529 47.6607 22.6321 47.7754 22.6165 47.8926C22.6008 48.0228 22.5982 48.1557 22.593 48.2625H22.5904Z" fill="#303030"/>
<path d="M33.5939 20.5848C31.5933 20.7099 29.9677 21.5747 28.931 23.4165C28.6887 23.8489 28.5037 24.3126 28.2797 24.7554C27.8812 25.5421 26.9642 25.7479 26.3364 25.1331C24.7812 23.6118 23.2234 22.0879 21.7334 20.5015C20.6106 19.3058 20.7383 17.4146 21.9314 16.2163C24.2915 13.8457 26.6594 11.4804 29.0273 9.11509C31.7027 6.43977 34.3806 3.76445 37.0559 1.08652C38.5017 -0.361848 40.4189 -0.364453 41.8699 1.08652C43.7507 2.96732 45.6315 4.84552 47.5123 6.72632C47.6165 6.83052 47.7207 6.93211 47.8197 7.03892C48.4814 7.77613 48.3746 8.79207 47.5175 9.28702C46.8246 9.68558 46.0822 10.0034 45.3476 10.3264C44.5505 10.6781 43.8028 11.0897 43.2011 11.7331C42.1981 12.8064 41.9168 14.0411 42.4378 15.4165C43.076 17.102 44.2561 18.2977 45.9076 18.9932C47.6165 19.7122 49.2915 19.1886 50.3778 17.5605C50.8571 16.8389 51.1671 16.0027 51.5553 15.2212C51.7558 14.8174 51.9356 14.398 52.1726 14.0151C52.7119 13.1424 53.7617 12.9991 54.4911 13.7207C56.5386 15.7422 58.5861 17.7662 60.5946 19.8268C61.8632 21.1293 61.7798 23.0648 60.4565 24.3881C55.9447 28.9052 51.4276 33.417 46.9106 37.9314C46.3635 38.4785 45.8191 39.0307 45.2668 39.5726C43.9878 40.8256 42.0601 40.8412 40.7784 39.5804C39.3301 38.1581 37.8999 36.7149 36.4698 35.2717C35.73 34.5241 35.9279 33.6228 36.871 33.1383C37.6446 32.7397 38.4913 32.3828 39.1112 31.7993C40.8383 30.1764 41.3515 28.1367 40.5258 25.912C39.4707 23.0674 37.431 21.2647 34.4119 20.6578C34.1696 20.6083 33.9195 20.6083 33.5965 20.5796L33.5939 20.5848Z" fill="#303030"/>
<path d="M52.2742 50.6513C52.2143 51.4771 51.9382 51.959 51.3442 52.2221C50.7269 52.4956 50.1017 52.3576 49.5833 51.8418C48.6429 50.904 47.7051 49.9636 46.7673 49.0232C46.5198 48.7757 46.2645 48.5335 46.0249 48.2782C45.4283 47.6425 45.4387 46.6995 46.0379 46.1108C46.624 45.5377 47.5592 45.5273 48.1688 46.1238C49.3983 47.3299 50.6227 48.5413 51.8157 49.7838C52.0684 50.0469 52.1726 50.4559 52.2716 50.6513H52.2742Z" fill="#303030"/>
<path d="M10.7299 9.14355C11.066 9.3233 11.4619 9.44052 11.7276 9.69581C12.9494 10.8681 14.1399 12.0716 15.3303 13.2777C15.9686 13.9237 15.9712 14.8641 15.3642 15.4763C14.7703 16.0728 13.8116 16.0546 13.1682 15.419C11.9751 14.2363 10.7898 13.0484 9.60718 11.8553C9.13047 11.3734 9.01064 10.7977 9.26332 10.1621C9.48735 9.59422 10.0552 9.23473 10.7299 9.14355Z" fill="#303030"/>
<path d="M17.3675 9.52896C17.3675 8.81519 17.3597 8.09882 17.3675 7.38505C17.3779 6.49936 18.0187 5.83769 18.8627 5.82727C19.7041 5.81685 20.3893 6.46549 20.3997 7.34598C20.4179 8.80477 20.4179 10.2636 20.3997 11.7224C20.3893 12.595 19.6963 13.2515 18.8549 13.2385C18.0109 13.2254 17.3779 12.5638 17.3649 11.6755C17.3597 11.3108 17.3649 10.9461 17.3649 10.5814C17.3649 10.2323 17.3649 9.88063 17.3649 9.53156L17.3675 9.52896Z" fill="#303030"/>
<path d="M9.47431 17.4639C10.1751 17.4639 10.8784 17.4561 11.5791 17.4639C12.4726 17.4743 13.1317 18.1126 13.1395 18.9592C13.1473 19.824 12.4805 20.4935 11.5713 20.4987C10.1542 20.5092 8.7371 20.5092 7.31999 20.4987C6.40303 20.4909 5.72834 19.8292 5.73355 18.9722C5.73876 18.1021 6.40043 17.4717 7.3278 17.4639C8.04417 17.4561 8.76054 17.4639 9.47691 17.4639H9.47431Z" fill="#303030"/>
<path d="M51.9512 44.1259C51.2374 44.1259 50.5211 44.1337 49.8073 44.1259C48.9216 44.1155 48.2625 43.472 48.2573 42.628C48.2495 41.8048 48.8825 41.1145 49.7422 41.0989C51.2296 41.0702 52.7171 41.0702 54.2019 41.0989C55.059 41.1171 55.6737 41.81 55.6607 42.6462C55.6477 43.4772 55.0016 44.1024 54.1368 44.1285C54.1081 44.1285 54.0795 44.1285 54.0482 44.1285C53.3475 44.1285 52.6493 44.1285 51.9486 44.1285L51.9512 44.1259Z" fill="#303030"/>
<path d="M44.0269 52.0581C44.0269 52.7745 44.0347 53.4908 44.0269 54.2072C44.0164 55.0799 43.3991 55.7285 42.5681 55.7598C41.7241 55.7884 41.0155 55.1554 40.9973 54.2723C40.9686 52.7979 40.9686 51.3209 40.9973 49.8438C41.0129 48.9686 41.7319 48.3277 42.5733 48.359C43.4043 48.3877 44.0138 49.0363 44.0269 49.9142C44.0321 50.2789 44.0269 50.6436 44.0269 51.0109C44.0269 51.3626 44.0269 51.7116 44.0269 52.0633V52.0581Z" fill="#303030"/>
</g>
<defs>
<clipPath id="clip0_126_264">
<rect width="61.5011" height="61.4933" fill="white"/>
</clipPath>
</defs>
</svg>
